<?xml version="1.0" encoding="UTF-8" standalone="no"?>
<!DOCTYPE svg PUBLIC "-//W3C//DTD SVG 1.1//EN" "http://www.w3.org/Graphics/SVG/1.1/DTD/svg11.dtd">
<svg width="100%" height="100%" viewBox="0 0 862 867" version="1.1" xmlns="http://www.w3.org/2000/svg" xmlns:xlink="http://www.w3.org/1999/xlink" xml:space="preserve" xmlns:serif="http://www.serif.com/" style="fill-rule:evenodd;clip-rule:evenodd;stroke-linecap:round;stroke-linejoin:round;stroke-miterlimit:1.5;">
    <g transform="matrix(1,0,0,1,-1484.46,-684.464)">
        <path d="M2040.12,712.185L2043.54,741.473" style="fill:none;stroke:rgb(2,2,2);stroke-width:4px;"/>
        <path d="M1964.84,696.032C1965.03,703.046 1967.3,712.144 1970.53,722.192" style="fill:none;stroke:rgb(2,2,2);stroke-width:4px;"/>
        <g transform="matrix(0.996645,0.39916,-0.385916,0.963577,450.701,-710.266)">
            <path d="M1655.52,782.929C1662.81,788.414 1671.22,793.338 1680.45,797.852" style="fill:none;stroke:rgb(2,2,2);stroke-width:3.79px;"/>
        </g>
        <g>
            <path d="M1929.31,1089.71C1929.73,1092.99 1929.62,1096.27 1927.6,1099.55" style="fill:none;stroke:rgb(2,2,2);stroke-width:1px;"/>
            <path d="M1937.45,1092.9C1939.04,1096.94 1938.18,1101.39 1935.23,1106.19" style="fill:none;stroke:rgb(2,2,2);stroke-width:1px;"/>
            <path d="M1946.41,1101.38C1946.78,1106.55 1943.57,1109.23 1942,1111" style="fill:none;stroke:rgb(2,2,2);stroke-width:1px;"/>
            <g>
                <path d="M1771,1128C1748.67,1129.14 1726.33,1130.89 1704,1133" style="fill:none;stroke:rgb(2,2,2);stroke-width:1px;"/>
                <path d="M1618.28,1165C1620.24,1160.92 1624.13,1158.13 1629,1156" style="fill:none;stroke:rgb(2,2,2);stroke-width:1px;"/>
                <g>
                    <path d="M1667.71,1183.1C1669.85,1197.17 1676.72,1209.96 1682.5,1223.42" style="fill:none;stroke:rgb(2,2,2);stroke-width:1px;"/>
                    <path d="M1827.9,1380C1817.83,1377 1808.56,1373.19 1800,1368.67" style="fill:none;stroke:rgb(2,2,2);stroke-width:1px;"/>
                    <path d="M1863.64,1420C1873.79,1421.37 1882.69,1421.48 1890,1420" style="fill:none;stroke:rgb(2,2,2);stroke-width:1px;"/>
                    <path d="M1910,1380C1923.03,1381.81 1936.36,1381.83 1950,1380" style="fill:none;stroke:rgb(2,2,2);stroke-width:1px;"/>
                    <path d="M2134.26,1265C2131.23,1271.6 2128.2,1277.66 2125.16,1280" style="fill:none;stroke:rgb(2,2,2);stroke-width:1px;"/>
                    <path d="M2178,1249C2180.67,1250.5 2183.33,1252.56 2186,1256" style="fill:none;stroke:rgb(2,2,2);stroke-width:1px;"/>
                    <path d="M2164.7,1206.11C2168.52,1200.06 2171.2,1192.3 2173.8,1184.42" style="fill:none;stroke:rgb(2,2,2);stroke-width:1px;"/>
                    <path d="M2140,965.258C2150.86,983.505 2158.59,1001.75 2164.7,1020" style="fill:none;stroke:rgb(2,2,2);stroke-width:1px;"/>
                    <path d="M2090,892C2080.75,883.42 2070.71,876.153 2060,870" style="fill:none;stroke:rgb(2,2,2);stroke-width:1px;"/>
                    <g>
                        <path d="M1623.62,1200C1627.17,1218.21 1634.29,1234.63 1643.52,1250" style="fill:none;stroke:rgb(2,2,2);stroke-width:1px;"/>
                        <path d="M1808.12,1400C1787.58,1395.65 1764.2,1383.64 1737.6,1362.92" style="fill:none;stroke:rgb(2,2,2);stroke-width:1px;"/>
                        <path d="M1933,1425C1933,1425 1918.43,1426.92 1913,1423C1907,1418.67 1897,1399 1897,1399" style="fill:none;stroke:rgb(2,2,2);stroke-width:1px;"/>
                        <g>
                            <path d="M2050,1176.38C2065.61,1184.03 2080.87,1193.11 2095.87,1203.18" style="fill:none;stroke:rgb(2,2,2);stroke-width:1px;"/>
                            <path d="M2180,1225C2193.05,1223.15 2201.05,1217.92 2205,1210" style="fill:none;stroke:rgb(2,2,2);stroke-width:1px;"/>
                            <path d="M2019,1063C2011.45,1073.17 2014.44,1085.67 2023.83,1110" style="fill:none;stroke:rgb(2,2,2);stroke-width:1px;"/>
                            <path d="M2026.55,985.138C2009.58,1006.08 1986.34,1016.69 1956.48,1016.4" style="fill:none;stroke:rgb(2,2,2);stroke-width:1px;"/>
                            <path d="M2080,855C2080,855 2105.83,870.833 2110,880C2114.17,889.167 2107,910 2107,910" style="fill:none;stroke:rgb(2,2,2);stroke-width:1px;"/>
                            <path d="M1815,920C1804.47,896.142 1799.42,870.496 1755,857.673" style="fill:none;stroke:rgb(2,2,2);stroke-width:1px;"/>
                            <path d="M1833.75,829.007C1840.49,819.607 1847.72,813.673 1855.65,812.567" style="fill:none;stroke:rgb(2,2,2);stroke-width:1px;"/>
                            <g>
                                <path d="M1638,1096C1637.59,1089.33 1637.96,1082.67 1639,1076" style="fill:none;stroke:rgb(2,2,2);stroke-width:1px;"/>
                                <path d="M1655.28,1100C1654.41,1081.62 1656.13,1063.25 1660,1044.87" style="fill:none;stroke:rgb(2,2,2);stroke-width:1px;"/>
                                <path d="M1882.29,1320C1884.63,1297.89 1888.37,1275.79 1892.53,1253.69" style="fill:none;stroke:rgb(2,2,2);stroke-width:1px;"/>
                                <path d="M1755.29,1155.59C1780.9,1153.7 1807.08,1150.62 1825.25,1164.24" style="fill:none;stroke:rgb(2,2,2);stroke-width:1px;"/>
                                <path d="M1830,900L1860,960" style="fill:none;stroke:rgb(2,2,2);stroke-width:1px;"/>
                                <path d="M1570,1140C1578.07,1263.06 1635.77,1333.88 1690,1380" style="fill:none;stroke:rgb(2,2,2);stroke-width:1px;"/>
                                <path d="M2086.3,1420C2103.4,1412.54 2119.92,1402.2 2136.07,1390" style="fill:none;stroke:rgb(2,2,2);stroke-width:1px;"/>
                                <path d="M2031.16,780C2112.17,810.415 2161.35,856.36 2193.77,910.474" style="fill:none;stroke:rgb(2,2,2);stroke-width:1px;"/>
                                <path d="M1770,805C1780.91,798.905 1792.63,794.698 1805,792" style="fill:none;stroke:rgb(2,2,2);stroke-width:1px;"/>
                                <path d="M1780,790C1784.89,786.726 1789.78,785.241 1794.67,784.811" style="fill:none;stroke:rgb(2,2,2);stroke-width:1px;"/>
                                <path d="M1917.08,1343.04C1932.41,1344.62 1947.39,1343.27 1962.12,1340" style="fill:none;stroke:rgb(2,2,2);stroke-width:1px;"/>
                                <path d="M1915.03,1355.09C1944.38,1356.9 1972.47,1351.54 2000,1343.04" style="fill:none;stroke:rgb(2,2,2);stroke-width:1px;"/>
                                <path d="M2074.95,1274.15C2083.02,1267.23 2090.61,1259.35 2097.47,1250" style="fill:none;stroke:rgb(2,2,2);stroke-width:1px;"/>
                                <path d="M2110,1253.18C2095.24,1272.79 2078.4,1289.65 2060,1304.4" style="fill:none;stroke:rgb(2,2,2);stroke-width:1px;"/>
                                <path d="M2122,1188C2126.87,1176.85 2130.04,1165.12 2132,1153" style="fill:none;stroke:rgb(2,2,2);stroke-width:1px;"/>
                                <path d="M2134,1194C2143.1,1170.31 2147.18,1144.61 2149,1118" style="fill:none;stroke:rgb(2,2,2);stroke-width:1px;"/>
                                <path d="M2116,986C2133.13,1014.42 2140.16,1033.63 2143,1049" style="fill:none;stroke:rgb(2,2,2);stroke-width:1px;"/>
                                <path d="M2090,1004.82C2098.26,1013.36 2104.58,1028.62 2110,1042.84" style="fill:none;stroke:rgb(2,2,2);stroke-width:1px;"/>
                                <path d="M2080,1020C2088.81,1028.51 2094.98,1042.96 2100,1060" style="fill:none;stroke:rgb(2,2,2);stroke-width:1px;"/>
                                <path d="M2036.37,960C2028.98,951.82 2019.57,948.326 2014,945" style="fill:none;stroke:rgb(2,2,2);stroke-width:1px;"/>
                                <g>
                                    <path d="M2056.5,940C2050.66,931.028 2041.19,924.232 2032.5,920" style="fill:none;stroke:rgb(2,2,2);stroke-width:1px;"/>
                                    <path d="M2070,930C2058.5,915.291 2042.87,902.251 2020,892.281" style="fill:none;stroke:rgb(2,2,2);stroke-width:1px;"/>
                                    <path d="M1881,926C1888.7,922.868 1897.13,921.415 1906,921" style="fill:none;stroke:rgb(2,2,2);stroke-width:1px;"/>
                                    <path d="M1874,911C1890.22,905.098 1906.16,903.687 1922,904" style="fill:none;stroke:rgb(2,2,2);stroke-width:1px;"/>
                                    <path d="M1867.49,894.562C1875.58,891.344 1881.65,890.49 1887.4,890" style="fill:none;stroke:rgb(2,2,2);stroke-width:1px;"/>
                                    <path d="M1800,925C1792.01,926.692 1785.15,930.267 1780,936.698" style="fill:none;stroke:rgb(2,2,2);stroke-width:1px;"/>
                                    <path d="M1793.22,910C1778.01,916.154 1765.3,926.263 1754.83,940" style="fill:none;stroke:rgb(2,2,2);stroke-width:1px;"/>
                                    <path d="M1704,1097.76C1701.36,1089.45 1702.54,1078.42 1704,1073.68" style="fill:none;stroke:rgb(2,2,2);stroke-width:1px;"/>
                                    <path d="M1689.13,1100C1687.86,1084.42 1689.35,1068.85 1694,1053.27" style="fill:none;stroke:rgb(2,2,2);stroke-width:1px;"/>
                                    <path d="M1704,1178C1707,1194.36 1715.71,1210.25 1726,1226" style="fill:none;stroke:rgb(2,2,2);stroke-width:1px;"/>
                                    <path d="M1694,1179C1699.61,1203.63 1713.77,1227.64 1730,1250" style="fill:none;stroke:rgb(2,2,2);stroke-width:1px;"/>
                                    <path d="M1845,1330C1827.99,1324.8 1813.36,1316.02 1800.23,1305" style="fill:none;stroke:rgb(2,2,2);stroke-width:1px;"/>
                                    <path d="M1575.14,890C1716.03,673.507 2014.32,638.564 2205.5,830" style="fill:none;stroke:rgb(2,2,2);stroke-width:5px;"/>
                                    <g transform="matrix(-0.797307,-9.7642e-17,7.28026e-17,-0.594478,3445.87,1944.09)">
                                        <path d="M1575.14,890C1716.03,673.507 2014.32,638.564 2205.5,830" style="fill:none;stroke:rgb(2,2,2);stroke-width:7.11px;"/>
                                    </g>
                                    <path d="M2120,880C2120,880 2117.7,911.193 2110,924.177C2102.28,937.184 2086.25,947.262 2073.69,958.04C2057.03,972.344 2028.95,998.701 2010,1010C1994.98,1018.95 1973.33,1023.02 1960,1025.83C1950.21,1027.9 1939.79,1028.99 1930,1026.9C1920,1024.77 1906.06,1022.24 1900,1013.04C1883.33,987.742 1842.28,905.632 1830,875.126C1824.36,861.126 1824.63,840.854 1826.3,830C1827.53,822.013 1840,806.686 1840,806.686" style="fill:none;stroke:rgb(2,2,2);stroke-width:8px;"/>
                                    <g transform="matrix(-0.765035,0.682454,-0.687292,-0.770458,4136.2,664.504)">
                                        <path d="M2120.87,872.075C2120.87,872.075 2117.7,911.193 2110,924.177C2102.28,937.184 2086.25,947.262 2073.69,958.04C2057.03,972.344 2028.95,998.701 2010,1010C1994.98,1018.95 1973.33,1023.02 1960,1025.83C1950.21,1027.9 1939.79,1028.99 1930,1026.9C1920,1024.77 1906.06,1022.24 1900,1013.04C1883.33,987.742 1842.28,905.632 1830,875.126C1824.36,861.126 1824.63,840.854 1826.3,830C1827.53,822.013 1840,806.686 1840,806.686" style="fill:none;stroke:rgb(2,2,2);stroke-width:7.78px;"/>
                                    </g>
                                    <g transform="matrix(0.32068,-0.942746,0.970493,0.330118,229.568,2562.73)">
                                        <path d="M1748,848C1763.67,851.168 1788.26,852.918 1800,870C1800,870 1850.65,971.667 1855.65,1010C1859.68,1040.93 1846.12,1090.11 1830,1100C1797.26,1120.09 1747.53,1121.5 1707.3,1126.92C1685.54,1129.85 1675.13,1131.07 1650,1130C1640.26,1129.59 1597.53,1100.61 1597.53,1100.61" style="fill:none;stroke:rgb(2,2,2);stroke-width:7.92px;"/>
                                    </g>
                                    <path d="M1748,848C1763.67,851.168 1788.26,852.918 1800,870C1800,870 1850.65,971.667 1855.65,1010C1859.68,1040.93 1846.12,1090.11 1830,1100C1797.26,1120.09 1747.53,1121.5 1707.3,1126.92C1685.54,1129.85 1675.13,1131.07 1650,1130C1640.26,1129.59 1604.54,1106.13 1604.54,1106.13" style="fill:none;stroke:rgb(2,2,2);stroke-width:8px;"/>
                                    <g transform="matrix(-0.765751,0.529296,-0.559456,-0.809385,4025.93,984.137)">
                                        <path d="M1748,848C1763.67,851.168 1788.26,852.918 1800,870C1800,870 1850.65,971.667 1855.65,1010C1859.68,1040.93 1846.12,1090.11 1830,1100C1797.26,1120.09 1747.53,1121.5 1707.3,1126.92C1685.54,1129.85 1675.13,1131.07 1650,1130C1640.26,1129.59 1604.54,1106.13 1604.54,1106.13" style="fill:none;stroke:rgb(2,2,2);stroke-width:8.35px;"/>
                                    </g>
                                    <path d="M1680,1180C1704.55,1270.25 1759.77,1326.57 1840,1355.21" style="fill:none;stroke:rgb(2,2,2);stroke-width:8px;"/>
                                    <path d="M1760,1173.05C1783.18,1222.58 1817.06,1250.74 1855.65,1269.46" style="fill:none;stroke:rgb(2,2,2);stroke-width:8px;"/>
                                    <path d="M1914.3,1370C2009.72,1367.99 2080.37,1331.2 2126.5,1260" style="fill:none;stroke:rgb(2,2,2);stroke-width:8px;"/>
                                    <path d="M1930,1285.54C1975.07,1280.84 2015.36,1263.14 2050,1230" style="fill:none;stroke:rgb(2,2,2);stroke-width:8px;"/>
                                    <path d="M2070,1030C2092.5,1069.36 2095.87,1113.06 2085,1160" style="fill:none;stroke:rgb(2,2,2);stroke-width:8px;"/>
                                    <path d="M2130,974.54C2172.89,1041.72 2177.32,1119.63 2155,1205" style="fill:none;stroke:rgb(2,2,2);stroke-width:8px;"/>
                                    <path d="M1890,940C1937.73,928.858 1982.58,938.228 2025,965" style="fill:none;stroke:rgb(2,2,2);stroke-width:8px;"/>
                                    <path d="M1855,860C1942.81,837.667 2018.42,858.021 2085,910" style="fill:none;stroke:rgb(2,2,2);stroke-width:8px;"/>
                                    <path d="M1753.88,1090C1757.1,1044.74 1775.79,1005.59 1815.02,974.54" style="fill:none;stroke:rgb(2,2,2);stroke-width:8px;"/>
                                    <path d="M1785,895C1716.58,945.601 1670.17,1011.48 1670,1100" style="fill:none;stroke:rgb(2,2,2);stroke-width:8px;"/>
                                    <g transform="matrix(-0.789907,0.669185,-0.646393,-0.763004,4150.71,682.914)">
                                        <path d="M1875,820C1897.15,816.2 2040.43,824.449 2084.1,873.541C2114.58,907.817 2062.61,939.394 2060,942.047C2060,942.047 2024.78,972.129 1994.54,990C1976.32,1000.77 1932.19,1002.53 1926,996C1879.36,946.797 1871.63,909.046 1857,880C1838.07,842.431 1849.26,824.416 1875,820Z" style="fill:none;stroke:rgb(2,2,2);stroke-width:7.86px;"/>
                                    </g>
                                    <g transform="matrix(-0.888097,-0.541725,0.52926,-0.867661,3031.62,3108.35)">
                                        <path d="M1875,820C1897.15,816.2 2040.43,824.449 2084.1,873.541C2114.58,907.817 2062.61,939.394 2060,942.047C2060,942.047 2024.78,972.129 1994.54,990C1976.32,1000.77 1932.19,1002.53 1926,996C1879.36,946.797 1871.63,909.046 1857,880C1838.07,842.431 1849.26,824.416 1875,820Z" style="fill:none;stroke:rgb(2,2,2);stroke-width:7.78px;"/>
                                    </g>
                                    <g transform="matrix(0.330247,-0.967178,0.99168,0.338613,187.487,2599.5)">
                                        <path d="M1875.64,821.819C1897.79,818.019 2040.43,824.449 2084.1,873.541C2114.58,907.817 2062.61,939.394 2060,942.047C2060,942.047 2024.78,972.129 1994.54,990C1976.32,1000.77 1932.19,1002.53 1926,996C1879.36,946.797 1871.63,909.046 1857,880C1838.07,842.431 1849.9,826.234 1875.64,821.819Z" style="fill:none;stroke:rgb(2,2,2);stroke-width:7.73px;"/>
                                    </g>
                                    <g transform="matrix(0.312489,0.949921,-0.949921,0.312489,2375.13,-1060.31)">
                                        <path d="M1875,820C1897.15,816.2 2040.43,824.449 2084.1,873.541C2114.58,907.817 2062.61,939.394 2060,942.047C2060,942.047 2024.78,972.129 1994.54,990C1976.32,1000.77 1932.19,1002.53 1926,996C1879.36,946.797 1871.63,909.046 1857,880C1838.07,842.431 1849.26,824.416 1875,820Z" style="fill:none;stroke:rgb(2,2,2);stroke-width:8px;"/>
                                    </g>
                                    <path d="M1875,820C1897.15,816.2 2040.43,824.449 2084.1,873.541C2114.58,907.817 2062.61,939.394 2060,942.047C2060,942.047 2024.78,972.129 1994.54,990C1976.32,1000.77 1932.19,1002.53 1926,996C1879.36,946.797 1871.63,909.046 1857,880C1838.07,842.431 1849.26,824.416 1875,820Z" style="fill:none;stroke:rgb(2,2,2);stroke-width:8px;"/>
                                    <g transform="matrix(1.39903,0,0,1.40212,-778.356,-438.844)">
                                        <ellipse cx="1925.34" cy="1110" rx="225.34" ry="230" style="fill:none;stroke:rgb(2,2,2);stroke-width:7.85px;"/>
                                    </g>
                                    <g transform="matrix(3.77284,0,0,3.64678,-4671.61,-2239.71)">
                                        <ellipse cx="1745.85" cy="920" rx="94.148" ry="100" style="fill:none;stroke:rgb(2,2,2);stroke-width:2.16px;"/>
                                    </g>
                                    <g transform="matrix(1.21429,0,0,1.23913,-489.286,-288.913)">
                                        <ellipse cx="1980" cy="1135" rx="350" ry="345" style="fill:none;stroke:rgb(2,2,2);stroke-width:9.03px;"/>
                                    </g>
                                    <circle cx="1895" cy="1055" r="15" style="fill:none;stroke:rgb(2,2,2);stroke-width:8px;"/>
                                    <g transform="matrix(1,0,0,1,75,10)">
                                        <circle cx="1895" cy="1055" r="15" style="fill:none;stroke:rgb(2,2,2);stroke-width:8px;"/>
                                    </g>
                                    <g transform="matrix(1,0,0,1,-35,65)">
                                        <circle cx="1895" cy="1055" r="15" style="fill:none;stroke:rgb(2,2,2);stroke-width:8px;"/>
                                    </g>
                                    <g transform="matrix(1,0,0,1,90,82.4633)">
                                        <circle cx="1895" cy="1055" r="15" style="fill:none;stroke:rgb(2,2,2);stroke-width:8px;"/>
                                    </g>
                                    <g transform="matrix(1,0,0,1,20,125)">
                                        <circle cx="1895" cy="1055" r="15" style="fill:none;stroke:rgb(2,2,2);stroke-width:8px;"/>
                                    </g>
                                    <g transform="matrix(2.5,0,0,2.58211,-2815,-1610.39)">
                                        <circle cx="1895" cy="1055" r="15" style="fill:none;stroke:rgb(2,2,2);stroke-width:3.15px;"/>
                                    </g>
                                    <path d="M1845,1340C1814.02,1328.87 1780.37,1311.63 1755.45,1284.58" style="fill:none;stroke:rgb(2,2,2);stroke-width:1px;"/>
                                    <path d="M1860,877.273C1876.65,872.294 1894.36,868.226 1914.45,870" style="fill:none;stroke:rgb(2,2,2);stroke-width:1px;"/>
                                </g>
                                <path d="M2045,950.737C2031.17,939.228 2016.2,930.585 2000,925" style="fill:none;stroke:rgb(2,2,2);stroke-width:1px;"/>
                                <path d="M2105.24,995.421C2111.77,1004.46 2116.33,1014.81 2120.07,1025.7" style="fill:none;stroke:rgb(2,2,2);stroke-width:1px;"/>
                                <path d="M1726,842C1759.5,818.972 1794.07,803.013 1830,796" style="fill:none;stroke:rgb(2,2,2);stroke-width:1px;"/>
                                <path d="M2060,1424.31C2090.57,1410.96 2119.24,1392.83 2146.02,1370" style="fill:none;stroke:rgb(2,2,2);stroke-width:1px;"/>
                                <path d="M2094.65,958.04L2063.73,990" style="fill:none;stroke:rgb(2,2,2);stroke-width:1px;"/>
                                <path d="M1830,1086.67C1838.77,1071.38 1842.87,1049.4 1845,1024.63" style="fill:none;stroke:rgb(2,2,2);stroke-width:1px;"/>
                                <path d="M1647,1100C1646.56,1092.58 1645.59,1081.21 1648,1070" style="fill:none;stroke:rgb(2,2,2);stroke-width:1px;"/>
                                <path d="M1633,1096C1632.99,1088.93 1632.56,1080.47 1634,1072.43" style="fill:none;stroke:rgb(2,2,2);stroke-width:1px;"/>
                            </g>
                            <path d="M1776.66,884.966C1765.48,892.18 1754.78,900.359 1744.81,910" style="fill:none;stroke:rgb(2,2,2);stroke-width:1px;"/>
                            <path d="M1770,882.008C1760.72,887.124 1752.27,893.064 1744.81,900" style="fill:none;stroke:rgb(2,2,2);stroke-width:1px;"/>
                            <path d="M1763.46,880C1756.02,883.774 1749.82,888.168 1744.81,893.155" style="fill:none;stroke:rgb(2,2,2);stroke-width:1px;"/>
                        </g>
                        <path d="M2150,1265C2160.6,1278.33 2164.56,1291.67 2160,1305" style="fill:none;stroke:rgb(2,2,2);stroke-width:1px;"/>
                    </g>
                    <path d="M1850,850C1867.66,844.981 1886.13,841.986 1905,840" style="fill:none;stroke:rgb(2,2,2);stroke-width:1px;"/>
                    <path d="M1847.52,845C1856.17,842.144 1864.41,841.022 1870,840" style="fill:none;stroke:rgb(2,2,2);stroke-width:1px;"/>
                    <path d="M1850,836.885C1858.09,834.66 1865.92,833.196 1873.41,832.791" style="fill:none;stroke:rgb(2,2,2);stroke-width:1px;"/>
                    <path d="M2090,905C2077.7,892.415 2064.24,882.732 2050,875" style="fill:none;stroke:rgb(2,2,2);stroke-width:1px;"/>
                    <path d="M2133,915C2135.77,913.645 2138.74,911.899 2142,912" style="fill:none;stroke:rgb(2,2,2);stroke-width:1px;"/>
                    <path d="M2134,922C2138.1,919.041 2142.41,917.562 2147,918" style="fill:none;stroke:rgb(2,2,2);stroke-width:1px;"/>
                    <path d="M2130,933C2138.92,926.497 2148.63,923.709 2159,924" style="fill:none;stroke:rgb(2,2,2);stroke-width:1px;"/>
                    <path d="M2145.51,960C2155.68,975.663 2163.62,992.441 2170,1010" style="fill:none;stroke:rgb(2,2,2);stroke-width:1px;"/>
                    <path d="M2152.35,960C2161.57,970.401 2167.42,981.281 2170,992.629" style="fill:none;stroke:rgb(2,2,2);stroke-width:1px;"/>
                    <path d="M2171.76,1210C2177.46,1198.64 2180.7,1186.3 2183.36,1173.73" style="fill:none;stroke:rgb(2,2,2);stroke-width:1px;"/>
                    <path d="M2185.41,1200C2190.22,1189.26 2192.51,1178.03 2194.28,1166.68" style="fill:none;stroke:rgb(2,2,2);stroke-width:1px;"/>
                    <path d="M2184,1265C2181.64,1260.44 2178.3,1257.13 2174,1255" style="fill:none;stroke:rgb(2,2,2);stroke-width:1px;"/>
                    <path d="M2181,1275C2175.76,1264.27 2167.67,1255.24 2158,1247" style="fill:none;stroke:rgb(2,2,2);stroke-width:1px;"/>
                    <path d="M2140,1270C2136.61,1277.83 2132.42,1284.6 2127.21,1290" style="fill:none;stroke:rgb(2,2,2);stroke-width:1px;"/>
                    <path d="M2145.41,1275C2140.86,1284.55 2134.79,1292.88 2127.21,1300" style="fill:none;stroke:rgb(2,2,2);stroke-width:1px;"/>
                    <path d="M1913.28,1390C1922.78,1390.9 1931.71,1390.92 1940,1390" style="fill:none;stroke:rgb(2,2,2);stroke-width:1px;"/>
                    <path d="M1916.01,1397.62C1925.79,1398.77 1935.57,1398.45 1945.35,1397.17" style="fill:none;stroke:rgb(2,2,2);stroke-width:1px;"/>
                    <path d="M1835.45,1374.34C1825.98,1372.45 1816.5,1369.47 1807.02,1364.55" style="fill:none;stroke:rgb(2,2,2);stroke-width:1px;"/>
                    <path d="M1840,1368.67C1822.19,1363.84 1805.54,1355.9 1790,1345" style="fill:none;stroke:rgb(2,2,2);stroke-width:1px;"/>
                    <path d="M1662.5,1183.1C1662.87,1192.07 1667.21,1201.03 1670,1210" style="fill:none;stroke:rgb(2,2,2);stroke-width:1px;"/>
                    <path d="M1655,1185C1655.72,1194.4 1657,1202.7 1660,1207.56" style="fill:none;stroke:rgb(2,2,2);stroke-width:1px;"/>
                    <path d="M1650,1197.5C1650.34,1203.33 1651.63,1209.17 1655,1215" style="fill:none;stroke:rgb(2,2,2);stroke-width:1px;"/>
                </g>
                <path d="M1614.3,1160C1616.3,1156.51 1619.05,1154.13 1622.26,1152.46" style="fill:none;stroke:rgb(2,2,2);stroke-width:1px;"/>
            </g>
            <path d="M1916.38,1094.63C1919.02,1093.13 1920.27,1090.93 1920,1087.97" style="fill:none;stroke:rgb(2,2,2);stroke-width:1px;"/>
            <path d="M1972.12,1057.63C1975.12,1058.25 1977.39,1059.75 1977.35,1064.01" style="fill:none;stroke:rgb(2,2,2);stroke-width:1px;"/>
            <g transform="matrix(1,0,0,1,-76.2068,-10.82)">
                <path d="M1972.12,1057.63C1975.12,1058.25 1977.39,1059.75 1977.35,1064.01" style="fill:none;stroke:rgb(2,2,2);stroke-width:1px;"/>
            </g>
            <path d="M1962.16,1067.03C1964.07,1067.35 1964.99,1068.17 1963.98,1069.94" style="fill:none;stroke:rgb(2,2,2);stroke-width:1px;"/>
            <g transform="matrix(1,0,0,1,-74.5007,-7.96191)">
                <path d="M1962.16,1067.03C1964.07,1067.35 1964.99,1068.17 1963.98,1069.94" style="fill:none;stroke:rgb(2,2,2);stroke-width:1px;"/>
            </g>
            <g transform="matrix(1,0,0,1,-109.761,55.1647)">
                <path d="M1972.12,1057.63C1975.12,1058.25 1977.39,1059.75 1977.35,1064.01" style="fill:none;stroke:rgb(2,2,2);stroke-width:1px;"/>
            </g>
            <g transform="matrix(1,0,0,1,-54.7365,115.163)">
                <path d="M1972.12,1057.63C1975.12,1058.25 1977.39,1059.75 1977.35,1064.01" style="fill:none;stroke:rgb(2,2,2);stroke-width:1px;"/>
            </g>
            <g transform="matrix(1,0,0,1,16.2082,72.5102)">
                <path d="M1972.12,1057.63C1975.12,1058.25 1977.39,1059.75 1977.35,1064.01" style="fill:none;stroke:rgb(2,2,2);stroke-width:1px;"/>
            </g>
            <g transform="matrix(1,0,0,1,-108.339,56.8708)">
                <path d="M1962.16,1067.03C1964.07,1067.35 1964.99,1068.17 1963.98,1069.94" style="fill:none;stroke:rgb(2,2,2);stroke-width:1px;"/>
            </g>
            <g transform="matrix(1,0,0,1,17.3456,73.0789)">
                <path d="M1962.16,1067.03C1964.07,1067.35 1964.99,1068.17 1963.98,1069.94" style="fill:none;stroke:rgb(2,2,2);stroke-width:1px;"/>
            </g>
            <g transform="matrix(1,0,0,1,-52.0368,116.869)">
                <path d="M1962.16,1067.03C1964.07,1067.35 1964.99,1068.17 1963.98,1069.94" style="fill:none;stroke:rgb(2,2,2);stroke-width:1px;"/>
            </g>
        </g>
        <path d="M1655.52,782.929C1662.81,788.414 1671.22,793.338 1680.45,797.852" style="fill:none;stroke:rgb(2,2,2);stroke-width:4px;"/>
        <g transform="matrix(0.828924,0,0,1.23819,351.109,-230.558)">
            <path d="M1655.52,782.929C1662.81,788.414 1671.22,793.338 1680.45,797.852" style="fill:none;stroke:rgb(2,2,2);stroke-width:3.8px;"/>
        </g>
        <g transform="matrix(0.621392,0,0,1.81797,848.943,-733.345)">
            <path d="M1655.52,782.929C1662.81,788.414 1671.22,793.338 1680.45,797.852" style="fill:none;stroke:rgb(2,2,2);stroke-width:2.94px;"/>
        </g>
        <path d="M2120.88,748.013L2117.47,776.733" style="fill:none;stroke:rgb(2,2,2);stroke-width:4px;"/>
        <path d="M2185.7,794.79L2178.31,820.097" style="fill:none;stroke:rgb(2,2,2);stroke-width:4px;"/>
        <path d="M2243.44,853.935L2229.79,878.674" style="fill:none;stroke:rgb(2,2,2);stroke-width:4px;"/>
        <path d="M2286.6,919.763L2268.97,939.384" style="fill:none;stroke:rgb(2,2,2);stroke-width:4px;"/>
        <path d="M2304.51,1006.21L2318.16,997.392" style="fill:none;stroke:rgb(2,2,2);stroke-width:4px;"/>
        <path d="M2333.23,1073.46L2318.16,1080" style="fill:none;stroke:rgb(2,2,2);stroke-width:4px;"/>
        <path d="M2333.23,1154.5L2318.16,1159.33" style="fill:none;stroke:rgb(2,2,2);stroke-width:4px;"/>
        <path d="M2304.51,1234.12L2318.16,1234.97" style="fill:none;stroke:rgb(2,2,2);stroke-width:4px;"/>
        <path d="M2286.31,1316.86L2265.84,1312.03" style="fill:none;stroke:rgb(2,2,2);stroke-width:4px;"/>
        <path d="M2241.67,1382.55L2222.9,1376.58" style="fill:none;stroke:rgb(2,2,2);stroke-width:4px;"/>
        <path d="M2182.82,1443.83L2161.78,1428.47" style="fill:none;stroke:rgb(2,2,2);stroke-width:4px;"/>
        <path d="M2116.57,1487.9L2098.08,1468.85" style="fill:none;stroke:rgb(2,2,2);stroke-width:4px;"/>
        <path d="M2032.79,1522.88L2019.43,1499.56" style="fill:none;stroke:rgb(2,2,2);stroke-width:4px;"/>
        <path d="M1953.46,1538.8L1942.65,1511.22" style="fill:none;stroke:rgb(2,2,2);stroke-width:4px;"/>
        <path d="M1868.15,1538.8L1862.46,1511.22" style="fill:none;stroke:rgb(2,2,2);stroke-width:4px;"/>
        <path d="M1786.82,1522.88L1788.24,1491.6" style="fill:none;stroke:rgb(2,2,2);stroke-width:4px;"/>
        <path d="M1706.91,1486.48L1716.58,1459.47" style="fill:none;stroke:rgb(2,2,2);stroke-width:4px;"/>
        <path d="M1641.51,1437.29L1651.75,1419.09" style="fill:none;stroke:rgb(2,2,2);stroke-width:4px;"/>
        <path d="M1582.08,1376.44L1598,1360.23" style="fill:none;stroke:rgb(2,2,2);stroke-width:4px;"/>
        <path d="M1539.14,1309.61L1555.92,1294.83" style="fill:none;stroke:rgb(2,2,2);stroke-width:4px;"/>
        <path d="M1506.44,1227.15L1525.49,1216.06" style="fill:none;stroke:rgb(2,2,2);stroke-width:4px;"/>
        <path d="M1494.21,1144.97L1515.97,1136.16" style="fill:none;stroke:rgb(2,2,2);stroke-width:4px;"/>
        <path d="M1498.77,1061.09L1525.49,1055.97" style="fill:none;stroke:rgb(2,2,2);stroke-width:4px;"/>
        <path d="M1515.97,982.463L1542.56,981.326" style="fill:none;stroke:rgb(2,2,2);stroke-width:4px;"/>
        <path d="M1547.53,908.674L1574.4,910.948" style="fill:none;stroke:rgb(2,2,2);stroke-width:4px;"/>
        <path d="M1597.44,841.566L1621.89,850.097" style="fill:none;stroke:rgb(2,2,2);stroke-width:4px;"/>
    </g>
</svg>
