<?xml version="1.0" encoding="UTF-8" standalone="no"?>
<!DOCTYPE svg PUBLIC "-//W3C//DTD SVG 1.1//EN" "http://www.w3.org/Graphics/SVG/1.1/DTD/svg11.dtd">
<svg width="100%" height="100%" viewBox="0 0 215 620" version="1.1" xmlns="http://www.w3.org/2000/svg" xmlns:xlink="http://www.w3.org/1999/xlink" xml:space="preserve" xmlns:serif="http://www.serif.com/" style="fill-rule:evenodd;clip-rule:evenodd;stroke-linecap:round;stroke-linejoin:round;stroke-miterlimit:1.5;">
    <g transform="matrix(3.03052,0,0,3.03052,-5268.42,-3162.51)">
        <g transform="matrix(0.806697,0,0,0.806697,354.806,222.288)">
            <circle cx="1759.17" cy="1036.49" r="14.754" style="fill:none;stroke:black;stroke-width:7.36px;"/>
        </g>
        <g transform="matrix(0.437553,0,0,0.16829,1007.34,888.572)">
            <rect x="1677.7" y="1080" width="148.554" height="148.554" style="fill:none;stroke:black;stroke-width:17.92px;"/>
        </g>
        <g transform="matrix(0.806697,0,0,0.806697,354.806,397.067)">
            <circle cx="1759.17" cy="1036.49" r="14.754" style="fill:none;stroke:black;stroke-width:7.36px;"/>
        </g>
        <g transform="matrix(-0.437553,0,-1.38778e-17,-0.16829,2540.51,1403.05)">
            <rect x="1677.7" y="1080" width="148.554" height="148.554" style="fill:none;stroke:black;stroke-width:17.92px;"/>
        </g>
        <g transform="matrix(1,0,0,1,0,-9)">
            <path d="M1741.42,1114.96C1763.44,1124.85 1785.12,1124.84 1806.42,1114.96" style="fill:none;stroke:black;stroke-width:5.94px;"/>
        </g>
        <g transform="matrix(1,0,0,1,0,9)">
            <path d="M1741.42,1114.96C1763.44,1124.85 1785.12,1124.84 1806.42,1114.96" style="fill:none;stroke:black;stroke-width:5.94px;"/>
        </g>
        <g transform="matrix(1,0,0,1,0,27)">
            <path d="M1741.42,1114.96C1763.44,1124.85 1785.12,1124.84 1806.42,1114.96" style="fill:none;stroke:black;stroke-width:5.94px;"/>
        </g>
        <g transform="matrix(1,0,0,1,0,45)">
            <path d="M1741.42,1114.96C1763.44,1124.85 1785.12,1124.84 1806.42,1114.96" style="fill:none;stroke:black;stroke-width:5.94px;"/>
        </g>
        <g transform="matrix(1,0,0,1,0,63)">
            <path d="M1741.42,1114.96C1763.44,1124.85 1785.12,1124.84 1806.42,1114.96" style="fill:none;stroke:black;stroke-width:5.94px;"/>
        </g>
    </g>
</svg>
